<svg width="61" height="66" viewBox="0 0 61 66" fill="none" xmlns="http://www.w3.org/2000/svg">
<path d="M24.9259 2.22155C26.2698 1.27908 27.8173 0.659818 29.3703 0.146484C27.8472 2.10204 26.8101 4.56278 27.1142 7.08056C27.421 10.3643 29.1341 13.3057 31.1513 15.8344C31.5232 16.269 31.773 16.785 32.0119 17.2983C28.2164 15.4134 24.5513 13.1944 20.5169 11.8391C19.2979 11.3638 17.916 11.7359 16.9712 12.6077C18.421 8.59068 20.9757 4.88327 24.535 2.46599C24.6137 2.41982 24.7685 2.32476 24.8472 2.27587L24.9259 2.22155Z" fill="#B1B1B1"/>
<path d="M54.0382 31.8862C57.8472 36.3378 60.011 42.468 58.7676 48.3102C58.6183 49.747 57.3477 50.6188 56.3594 51.507C52.8545 54.1714 49.078 56.4475 45.2879 58.6773C42.5214 60.2852 39.7251 61.8415 36.8527 63.2512C34.9603 64.2045 33.049 65.1606 31.0156 65.7798C29.3404 66.3719 27.6735 65.4376 26.1395 64.8455C19.8952 61.9991 13.9332 58.5524 8.14768 54.8722C7.20288 54.2475 6.20922 53.6852 5.37573 52.9057C10.4364 55.2524 16.5097 56.0699 21.7441 53.7912C27.0653 51.3902 32.1857 48.5764 37.2409 45.6647C42.0952 42.8238 46.9603 39.9583 51.4807 36.5986C52.4934 35.8001 53.6825 34.9988 54.0436 33.6815C54.2608 33.1003 54.1061 32.4783 54.0382 31.8862Z" fill="#B1B1B1"/>
<path d="M29.3702 0.146884C30.1358 0.0925627 30.9095 0.155032 31.6371 0.421205C34.0317 1.2333 36.2688 2.42836 38.5222 3.55553C44.134 6.49429 49.6208 9.68836 54.8362 13.2871C55.9928 14.1182 57.1656 14.9494 58.1539 15.9842C58.9141 16.7664 59.0471 17.9071 59.2426 18.9284C60.0842 25.0802 59.9267 31.3027 59.9294 37.4953C59.8453 39.5242 59.7937 41.5585 59.5955 43.5819L59.3729 43.7911C58.9466 38.579 56.6254 33.3642 52.5177 30.0261C46.0181 25.2649 38.9973 21.2777 32.0118 17.2987C31.7729 16.7854 31.5231 16.2694 31.1512 15.8348C29.134 13.3061 27.4208 10.3647 27.1141 7.08096C26.81 4.56318 27.8471 2.10244 29.3702 0.146884Z" fill="#B1B1B1"/>
<path d="M5.98361 12.5343C11.932 8.54717 18.1682 4.9973 24.5728 1.80322C24.6623 1.90915 24.8361 2.11828 24.9257 2.22149L24.847 2.27582C24.7682 2.3247 24.6135 2.41977 24.5347 2.46594C24.5239 2.38717 24.4994 2.22693 24.4886 2.14816C19.8841 5.40742 16.3329 10.5353 15.9121 16.2662C15.1248 25.4872 15.1302 34.7598 15.513 43.9998C15.608 46.0042 15.7519 48.0059 15.9909 49.9968C16.1809 51.1294 16.2949 52.357 17.028 53.2914C17.3999 53.8454 18.0678 54.0546 18.5429 54.4973C12.8877 55.4289 6.6542 54.299 2.29673 50.3906C0.898544 49.3612 0.814381 47.4899 0.586327 45.92C-0.0734018 39.5943 -0.0761167 33.2198 0.0976389 26.8696C0.24153 23.8711 0.314833 20.8482 0.909404 17.8958C1.06415 17.1788 1.22977 16.4183 1.77275 15.8832C3.01076 14.5741 4.52298 13.5719 5.98361 12.5343Z" fill="#B1B1B1"/>
</svg>
