<svg width="120" height="37" viewBox="0 0 120 37" fill="none" xmlns="http://www.w3.org/2000/svg">
<path fill-rule="evenodd" clip-rule="evenodd" d="M50.0592 0H57.78C57.9816 2.4636 57.8544 4.94329 57.852 7.41149C55.2744 7.37012 52.5744 7.63671 50.0712 7.28739C49.9656 4.86286 50.016 2.42683 50.0592 0ZM60.2688 0H67.9488C68.028 6.28311 67.944 12.5662 67.9896 18.8493C67.9464 19.6766 68.7336 20.4258 69.5952 20.3845C71.0376 20.396 72.48 20.3937 73.9224 20.3845C74.7984 20.4442 75.5952 19.6927 75.5616 18.8539C75.6264 15.717 75.4872 12.5731 75.6288 9.43615C78.1992 9.34422 80.7744 9.39708 83.3472 9.40398C83.5272 12.6214 83.268 15.8548 83.4792 19.0676C83.7432 20.897 87.0528 20.8395 87.204 18.9803C87.3288 15.7951 87.1584 12.5984 87.288 9.41087C89.8272 9.3764 92.3688 9.3764 94.908 9.41087C95.0352 11.7182 94.9056 14.0301 94.9776 16.3398C96.2136 14.037 97.3488 11.6837 98.6352 9.40398C102.881 9.39248 107.129 9.34422 111.374 9.42696C115.673 9.64068 119.297 13.0488 120 17.0545V19.6904C119.287 23.9328 115.481 27.7017 110.878 27.8373C106.159 27.8833 101.441 27.8419 96.7248 27.858C94.6728 27.8626 92.7048 27.1341 91.0296 26.0356C87.7008 28.4532 82.8216 28.4302 79.4856 26.0425C76.4544 28.2878 72.4488 27.9499 68.8584 27.7707C64.1448 27.5593 60.072 23.3629 60.2088 18.8424C60.2424 12.5616 60.1272 6.27851 60.2688 0ZM94.9584 16.7373C94.9128 18.022 94.6152 19.9386 96.3072 20.373C101.083 20.4672 105.871 20.4006 110.652 20.4075C112.79 20.3845 112.79 16.7925 110.645 16.7534C105.418 16.6868 100.186 16.7557 94.9584 16.7373ZM6.276 9.92335C8.4096 9.1328 10.7304 9.44994 12.96 9.39019C15.0504 9.42925 17.1432 9.30056 19.2264 9.47292C18.1056 11.9411 16.7616 14.3105 15.504 16.7166C13.3872 16.804 11.256 16.6178 9.1464 16.8063C7.212 17.105 7.3512 20.3523 9.3552 20.3822C18.3192 20.4212 27.288 20.3822 36.252 20.4006C37.3248 20.5178 38.3496 19.6537 38.3688 18.6264C38.4504 15.563 38.3136 12.4973 38.4384 9.43615C41.0088 9.34193 43.584 9.39938 46.1568 9.40398C46.3512 12.6214 46.0776 15.8548 46.2936 19.0676C46.5432 20.9016 49.8672 20.8395 50.0136 18.9826C50.1336 15.7974 49.9632 12.6007 50.0928 9.41087C52.6656 9.39019 55.2408 9.34652 57.8112 9.43615C57.9336 12.5685 57.8376 15.7078 57.8664 18.8424C57.9264 22.4528 55.3824 25.8586 51.9168 27.1916C48.8112 28.3958 45.1272 27.9086 42.4272 26.0264C40.6992 27.2053 38.6088 27.8994 36.4776 27.8534C27.3576 27.8396 18.2376 27.8902 9.1176 27.8281C4.5216 27.7362 0.612 24.0523 0 19.7617V17.498C0.5016 14.1427 2.904 11.0655 6.276 9.92335ZM18.7152 15.6227C19.884 13.5889 20.7552 11.3597 22.0872 9.43845C25.8144 9.3741 29.556 9.33043 33.2808 9.45913C33.3096 11.8722 33.3192 14.2852 33.276 16.6983C28.4208 16.7833 23.5608 16.7235 18.7032 16.7373C17.9568 16.7189 18.5736 15.9606 18.7152 15.6227ZM75.624 29.3518C78.168 29.2553 80.7216 29.2943 83.268 29.3288C83.5968 31.7074 83.4696 34.3043 83.3304 36.7449C80.7696 36.6943 78.2112 36.7541 75.6528 36.7127C75.528 34.2629 75.5832 31.8039 75.624 29.3518Z" fill="#B1B1B1"/>
<path fill-rule="evenodd" clip-rule="evenodd" d="M20.9159 29.8413C21.3959 29.8413 21.8783 29.8413 22.3583 29.8436C22.3583 30.4802 22.3631 31.1168 22.3631 31.7534C23.3759 31.7878 24.5255 31.604 25.4039 32.2107C26.9999 33.4816 26.5991 36.4599 24.4679 37H20.9183C20.9063 34.6145 20.9135 32.2268 20.9159 29.8413ZM22.3703 32.8863C22.3559 33.8929 22.3607 34.8995 22.3631 35.9061C23.0951 35.844 24.0143 36.0578 24.5879 35.5085C24.9551 34.7938 24.9959 33.7757 24.3815 33.1736C23.8079 32.7737 23.0351 32.9507 22.3703 32.8863ZM53.6111 29.8413C54.0911 29.8436 54.5735 29.8436 55.0559 29.8436C55.0559 30.4825 55.0583 31.1214 55.0607 31.7603C55.5671 31.7557 56.0759 31.7488 56.5823 31.7465C56.5823 32.1027 56.5823 32.4566 56.5823 32.8128C56.0807 32.8013 55.5791 32.7898 55.0775 32.7829C55.1183 34.0308 54.4775 36.2899 56.5847 36.0141C56.5823 36.3427 56.5823 36.6714 56.5847 37H54.6719C52.9727 36.2462 53.7983 34.1871 53.6063 32.799C53.2679 32.799 52.9319 32.8013 52.5959 32.8013C52.5935 32.4543 52.5935 32.105 52.5911 31.758C52.9295 31.7534 53.2679 31.7511 53.6063 31.7511C53.6063 31.1145 53.6087 30.4779 53.6111 29.8413ZM5.37349 31.8361C6.64069 31.6706 7.92469 31.8085 9.19909 31.7442C9.20149 32.1142 9.20389 32.4865 9.20389 32.8565C8.14309 32.868 7.07509 32.7714 6.02149 32.9139C5.61109 32.9852 5.42869 33.4425 5.81269 33.6884C6.86389 34.0285 8.18629 33.4793 9.09109 34.2652C9.86389 35.0948 9.47029 36.4714 8.50549 37H4.24789C4.25269 36.63 4.25509 36.2623 4.25749 35.8946C5.46709 35.913 6.67669 35.9291 7.88389 35.8716C7.96069 35.7337 8.11429 35.458 8.19109 35.3224C7.20469 34.3686 5.57029 35.327 4.49269 34.5318C3.80149 33.6746 4.10149 32.0107 5.37349 31.8361ZM12.5255 31.7465C14.1191 31.9648 16.1975 31.1949 17.4023 32.5163C18.0647 33.8998 17.5823 35.52 17.7215 37H13.2383C11.9807 36.63 11.7311 34.7708 12.8255 34.1158C13.9247 33.6516 15.1655 33.8929 16.3295 33.8194C15.9767 32.2084 13.7471 33.0449 12.5255 32.8496C12.5255 32.4819 12.5255 32.1142 12.5255 31.7465ZM13.6247 35.4051C13.9055 36.4209 15.4319 35.782 16.2527 35.9589C16.2383 35.5844 16.2191 35.2121 16.2047 34.8375C15.3863 35.0144 14.0087 34.4583 13.6247 35.4051ZM29.2439 31.7534C30.8207 31.9533 32.8055 31.2363 34.0655 32.4221C34.8839 33.7964 34.3271 35.4924 34.4831 37H29.9903C28.6271 36.6346 28.4423 34.5111 29.7719 34.0216C30.8351 33.7068 31.9727 33.8768 33.0695 33.8171C32.6687 32.2084 30.4799 33.0518 29.2415 32.8427C29.2415 32.4796 29.2439 32.1165 29.2439 31.7534ZM30.4271 35.8808C31.2743 35.9773 32.1287 35.9704 32.9807 35.9612C32.9807 35.5935 32.9807 35.2258 32.9807 34.8581C32.0951 34.9547 30.0959 34.4123 30.4271 35.8808ZM37.6223 31.7488C39.1751 31.9418 41.1887 31.2409 42.3743 32.5026C42.9383 33.9182 42.5135 35.5131 42.6431 37H41.1911C41.1047 35.7039 41.3687 34.3663 41.0423 33.0978C40.4303 32.8243 39.7271 32.9553 39.0767 32.9139C39.0719 34.2767 39.0767 35.6372 39.0695 37H37.6223C37.6199 35.2488 37.6199 33.4999 37.6223 31.7488ZM46.6703 32.0498C47.8127 31.5695 49.1063 31.8269 50.3159 31.7442C50.3183 32.1142 50.3207 32.4842 50.3255 32.8565C49.1975 32.9714 47.2751 32.3532 46.9655 33.8401C48.0815 33.8607 49.1975 33.8562 50.3159 33.8309C50.3183 34.2009 50.3207 34.5732 50.3231 34.9455C49.2071 34.9501 48.0887 34.9409 46.9727 34.9662C47.2631 36.4599 49.2047 35.7751 50.3135 35.8923C50.3183 36.26 50.3207 36.63 50.3255 37H47.3759C45.0695 36.5588 44.7719 33.1162 46.6703 32.0498Z" fill="#B1B1B1"/>
</svg>
