<svg width="60" height="69" viewBox="0 0 60 69" fill="none" xmlns="http://www.w3.org/2000/svg">
<path fill-rule="evenodd" clip-rule="evenodd" d="M29.9799 0.0161133L30.0156 0.0220018C39.5482 17.5202 49.1047 35.0072 58.6275 52.5106C54.2939 52.5086 49.9596 52.5132 45.6254 52.508C40.4044 42.8913 35.2068 33.2596 30.0039 23.6318C29.9073 23.7457 29.8528 23.887 29.7782 24.0152C24.6383 33.5108 19.5127 43.0143 14.3644 52.5053C10.0321 52.5191 5.69908 52.5027 1.36676 52.5139C1.41281 52.3823 1.48157 52.262 1.54773 52.1416C11.0284 34.7684 20.4941 17.386 29.9799 0.0161133ZM0.295837 58.4011C0.814107 57.0807 2.15616 56.1438 3.56697 56.1386C5.38254 56.1379 7.19811 56.1333 9.01367 56.1405C9.02016 56.9447 9.02146 57.7488 9.01303 58.5529C7.19681 58.5614 5.37994 58.549 3.56373 58.5588C2.93713 58.5738 2.39551 59.1607 2.42859 59.7934C2.42859 60.4058 2.95724 60.9482 3.56178 60.9711C4.42838 60.9829 5.29497 60.9685 6.16222 60.9777C7.33497 61.0117 8.46167 61.681 9.074 62.6886C9.67984 63.6498 9.78751 64.9086 9.35227 65.96C8.93649 67.003 8.01476 67.8221 6.9354 68.1054C6.34708 68.2775 5.72827 68.216 5.12438 68.2271C3.6273 68.2206 2.12892 68.2409 0.631837 68.2173C0.631188 67.4158 0.622107 66.6137 0.636378 65.8122C2.43573 65.801 4.23508 65.8122 6.03443 65.8069C6.67594 65.8187 7.24741 65.2246 7.21951 64.5782C7.2234 63.969 6.70189 63.4168 6.09735 63.3946C5.23205 63.3802 4.36611 63.3959 3.50081 63.3867C2.29822 63.3566 1.14622 62.6559 0.537134 61.6136C-0.0375683 60.659 -0.129676 59.4316 0.295837 58.4011ZM10.8221 56.1405C11.6193 56.1386 12.4178 56.1275 13.215 56.1464C13.2169 57.7547 13.2052 59.3642 13.2202 60.9731C14.8165 60.9724 16.4135 60.9875 18.0091 60.9652C18.0091 59.357 18.0001 57.7475 18.0137 56.1392C18.8083 56.1353 19.6029 56.1373 20.3975 56.1379C20.413 60.165 20.4046 64.1928 20.4014 68.2199C19.6048 68.2317 18.8063 68.235 18.0098 68.2186C18.0046 66.6163 18.0065 65.0139 18.0091 63.4116C16.4141 63.3861 14.799 63.3606 13.2098 63.4247C13.2182 65.0231 13.2169 66.6222 13.2104 68.2212C12.4139 68.2291 11.6154 68.2376 10.8189 68.2173C10.8169 64.1915 10.8111 60.1657 10.8221 56.1405ZM28.1845 56.149C30.4042 60.1663 32.5998 64.2013 34.7806 68.2415H31.8059C30.5949 66.0398 29.4195 63.8179 28.2104 61.6156C28.1566 61.6535 28.117 61.7033 28.0904 61.7667C26.9222 63.9252 25.7618 66.0883 24.5845 68.2415H21.6033C23.7828 64.2026 25.9985 60.184 28.1845 56.149ZM32.3877 56.1477C35.5817 56.1268 38.7782 56.1392 41.9728 56.1412C41.9806 56.9447 41.9806 57.7494 41.9728 58.5529C40.7754 58.5771 39.5702 58.5228 38.3773 58.5804C38.3871 61.7936 38.3851 65.008 38.3786 68.2219C37.5815 68.2284 36.783 68.2389 35.9871 68.2167C35.9825 64.9995 35.9864 61.7824 35.9851 58.5653C34.7864 58.5385 33.5864 58.5751 32.3877 58.547C32.3897 57.7468 32.391 56.9473 32.3877 56.1477ZM43.1832 56.1412C45.7765 56.1379 48.3717 56.1288 50.965 56.1464C50.967 56.9466 50.9676 57.7475 50.9644 58.5483C49.1702 58.5712 47.3748 58.5444 45.5806 58.5614C45.5683 59.3642 45.565 60.169 45.5819 60.9724C47.1737 60.9829 48.7668 60.9672 50.3585 60.9796C50.3715 61.7824 50.3767 62.5872 50.3559 63.39C48.7642 63.3972 47.1724 63.3815 45.5806 63.3972C45.5709 64.2 45.5592 65.0054 45.5871 65.8076C47.3786 65.8213 49.1728 65.7873 50.9631 65.8239C50.9696 66.6294 50.9663 67.4354 50.9637 68.2415H43.1793C43.1761 64.2085 43.1676 60.1742 43.1832 56.1412ZM52.1741 56.1373C52.9681 56.1399 53.7626 56.132 54.5566 56.1412C54.5702 59.3622 54.5533 62.5846 54.565 65.8063C56.365 65.8154 58.1657 65.801 59.9657 65.8135C59.9845 66.615 59.9735 67.4184 59.9709 68.2206C57.3711 68.2343 54.7694 68.2291 52.1689 68.2232C52.1624 64.1948 52.1521 60.1644 52.1741 56.1373Z" fill="#B1B1B1"/>
<path fill-rule="evenodd" clip-rule="evenodd" d="M29.2664 36.7866C32.3766 36.4646 35.5342 38.2155 37.0437 40.955C38.2813 43.1364 38.4175 45.9033 37.4147 48.2031C36.6246 50.0443 35.1379 51.5688 33.3224 52.3906C31.2305 53.3602 28.7202 53.3569 26.6328 52.3768C24.744 51.5132 23.2158 49.8873 22.4614 47.9395C21.624 45.8111 21.7323 43.3248 22.7669 41.2848C23.9915 38.807 26.5291 37.0371 29.2664 36.7866ZM27.923 64.6217C28.8104 64.4647 29.7399 65.0882 29.9377 65.9741C30.1848 66.8784 29.6069 67.8977 28.7131 68.1477C27.7589 68.4702 26.6432 67.8107 26.4434 66.8201C26.1866 65.8341 26.9208 64.7447 27.923 64.6217Z" fill="#B1B1B1"/>
</svg>
