<svg width="60" height="77" viewBox="0 0 60 77" fill="none" xmlns="http://www.w3.org/2000/svg">
<path fill-rule="evenodd" clip-rule="evenodd" d="M26.0412 1.65308C26.9878 1.14202 27.9097 0.58598 28.8755 0.110352C33.4919 2.58117 38.133 5.00973 42.7672 7.4492C33.4727 12.3159 24.1796 17.1825 14.8782 22.037C14.707 22.161 14.3631 22.195 14.396 22.4731C14.3864 27.5646 14.385 32.6561 14.3974 37.7477C18.8905 40.1653 23.3631 42.6225 27.8481 45.0552C23.0056 47.5764 18.1549 50.0813 13.3138 52.6066C8.88641 50.4752 4.49463 48.2619 0.0576471 46.1523C0.0329895 38.4918 0.0535375 30.8299 0.0466882 23.1695C0.0631265 20.7818 0.0138114 18.3914 0.0699758 16.0064C1.70422 15.0484 3.40011 14.168 5.05491 13.2331C12.0535 9.37761 19.0426 5.50717 26.0412 1.65308ZM34.7535 13.4497C37.8179 11.8607 40.8796 10.2689 43.9439 8.6812C47.6124 10.442 51.2522 12.2641 54.9138 14.0344C55.6659 14.4337 56.4672 14.7676 57.2015 15.1805C57.2344 25.2164 57.2056 35.2564 57.2152 45.295C47.6672 50.5283 38.1494 55.8216 28.607 61.0657C28.3741 61.202 28.1481 61.0248 27.9426 60.9281C23.47 58.5527 18.9741 56.2195 14.5124 53.825C23.9618 48.8725 33.4138 43.9268 42.87 38.9892C42.8659 33.8895 42.8782 28.7911 42.8645 23.6928C42.9015 23.4965 42.6631 23.4597 42.5453 23.3753C38.2166 21.0407 33.9165 18.6544 29.5782 16.339C29.5481 16.294 29.4892 16.2054 29.459 16.1604C31.2522 15.3182 32.9823 14.341 34.7535 13.4497ZM53.7289 56.3326C55.9179 54.5446 57.9083 52.5358 59.9193 50.5569C59.9713 50.7477 59.9522 50.944 59.8631 51.1211C59.1878 52.7974 57.8481 54.0744 56.5809 55.3173C54.307 57.4501 51.77 59.2736 49.333 61.2143C48.5892 61.7471 47.9193 62.3904 47.1138 62.8347C47.3124 62.017 47.807 61.277 48.4111 60.695C50.1042 59.1469 51.9481 57.7759 53.7289 56.3326ZM9.78778 58.043C10.3672 58.3591 11.0563 58.8252 11.0508 59.5598C10.9974 60.2739 10.6111 60.9853 10.0097 61.3874C9.59463 60.9908 8.99737 60.7359 8.71107 60.2344C8.96861 59.463 9.35902 58.7353 9.78778 58.043ZM37.5344 60.785C38.1755 60.462 38.8439 60.139 39.5741 60.094C39.6083 60.6105 39.2111 60.9717 38.9289 61.3533C38.7015 61.6368 38.4919 61.9816 38.107 62.0674C37.1042 62.355 36.2741 63.0023 35.4083 63.5529C32.0138 65.8316 28.5344 68.1375 24.5768 69.3245C22.6001 69.916 20.5494 70.2458 18.4892 70.3657C17.007 70.363 15.5152 70.427 14.0439 70.209C13.2905 70.0645 12.4631 69.9541 11.8823 69.4049C11.7275 69.3 11.6042 69.0724 11.3905 69.1078C10.9878 69.4512 10.7481 69.9528 10.2946 70.2458C9.97409 70.2226 9.64395 70.1531 9.32614 70.2281C8.38915 70.7309 8.14669 71.9439 7.20285 72.4399C6.50559 72.7929 5.60833 72.4249 5.27956 71.7394C4.64395 70.5388 4.95354 69.1514 5.07272 67.869C5.12477 66.9831 5.33162 66.1191 5.42614 65.2387C5.56587 64.0585 6.04806 62.9437 6.63984 61.923C6.62751 63.1004 6.30696 64.2479 6.2097 65.4186C6.03573 66.498 5.89737 67.5923 5.95765 68.688C5.98778 69.2454 6.2097 69.8724 6.76039 70.1149C7.39326 70.4638 8.22614 70.2212 8.65354 69.6666C8.95628 69.3395 9.21929 68.8884 9.70285 68.8216C9.98778 68.8202 10.2686 68.8829 10.5549 68.8788C11.2344 68.4128 11.5823 67.6032 12.2864 67.1603C12.5563 67.054 12.859 67.0881 13.1344 67.159C15.0289 67.8036 17.0576 67.9221 19.0467 67.914C23.9385 67.8158 28.6522 66.0687 32.8481 63.6469C34.4412 62.7434 35.8809 61.5863 37.5344 60.785ZM51.0563 63.8909C51.2946 63.3716 51.4713 62.817 51.807 62.3482C51.8398 63.3853 51.5124 64.391 51.4426 65.4227C51.2563 66.7637 51.0261 68.1225 51.1768 69.4785C51.2522 70.0863 51.885 70.4611 52.4686 70.3834C52.7426 70.0359 52.8768 69.6161 53.0111 69.2032C53.07 69.1746 53.1892 69.1173 53.2494 69.0901C53.3097 69.7947 53.0494 70.4597 52.8604 71.1262C52.6755 71.6672 52.4398 72.2205 52.0001 72.6076C51.4919 72.9564 50.7179 72.7425 50.4412 72.1973C49.959 71.182 50.0864 70.0223 50.1987 68.9402C50.2987 68.2151 50.3179 67.4792 50.4563 66.7596C50.6275 65.8002 50.6494 64.7944 51.0563 63.8909ZM46.2453 64.7863C46.5029 64.1825 46.8111 63.602 47.1768 63.0568C47.2042 63.9154 46.87 64.7236 46.7659 65.5658C46.459 66.8537 46.3152 68.1729 46.2179 69.4908C46.196 70.1858 46.1289 71.0239 46.7001 71.5391C46.9371 71.8062 47.3097 71.7667 47.633 71.7817C47.9604 71.3919 48.0933 70.8958 48.2755 70.4325C48.4837 70.5129 48.5234 70.7418 48.4604 70.9354C48.2275 71.9752 48.0289 73.0954 47.3248 73.9377C46.8124 74.5291 45.7494 74.2825 45.4946 73.5629C44.9193 72.1646 45.3618 70.6451 45.3659 69.1937C44.7097 69.473 44.4165 70.1967 43.8933 70.6464C42.5686 71.8048 40.9261 72.5176 39.3029 73.1609C37.2755 74.014 35.0494 74.1666 32.8782 74.3111C31.907 74.3193 30.9234 74.382 29.9631 74.1857C29.422 74.0944 28.8124 73.935 28.4878 73.4552C28.0261 72.7234 28.1755 71.8226 28.2083 71.0062C28.2741 70.5851 28.2398 70.0454 28.622 69.7633C28.7138 70.2362 28.9029 70.6805 29.085 71.1248C29.9111 71.7844 31.0439 71.798 32.0535 71.7749C33.6467 71.7367 35.2563 71.8921 36.833 71.5936C38.5494 71.3837 40.2796 71.1003 41.8974 70.4679C43.1412 69.8833 44.4371 69.18 45.1659 67.9685C45.77 66.9954 45.722 65.7893 46.2453 64.7863ZM48.37 64.4565C48.9837 64.7808 49.6809 65.3287 49.5809 66.1041C49.444 66.6861 49.1946 67.3402 48.6453 67.6509L48.4974 67.6291C48.0796 67.3034 47.5768 67.0445 47.2864 66.5866C47.6152 65.8615 47.933 65.127 48.37 64.4565ZM10.2111 75.2882C10.47 74.69 10.7782 74.1176 11.1179 73.5629C11.7289 73.9677 12.5248 74.5169 12.359 75.3618C12.1535 75.9438 11.9166 76.5966 11.3371 76.91C10.9042 76.6115 10.4659 76.3104 10.0946 75.9356C9.90148 75.7325 10.1385 75.4899 10.2111 75.2882ZM13.4686 73.4879C13.8809 73.5902 14.1878 73.8968 14.4672 74.198C14.9111 74.6 14.8056 75.3019 14.5563 75.7843C14.3494 76.1577 14.1631 76.6456 13.7029 76.7615C13.2494 76.4112 12.7481 76.1032 12.3823 75.6562C12.7234 74.923 13.0713 74.1925 13.4686 73.4879ZM50.2878 75.6589C50.6508 74.9843 50.9371 74.2702 51.359 73.6283C51.8344 73.9636 52.4303 74.3138 52.5166 74.9421C52.5124 75.4995 52.2467 76.0337 51.9001 76.4616C51.7782 76.6129 51.5398 76.7696 51.3672 76.5938C50.9919 76.3022 50.585 76.0351 50.2878 75.6589Z" fill="#B1B1B1"/>
<path fill-rule="evenodd" clip-rule="evenodd" d="M26.8617 18.7158C27.0138 18.5946 27.2124 18.5837 27.3987 18.5687C28.5412 18.4801 29.6974 18.4774 30.833 18.6395C30.8864 18.6613 30.9932 18.7049 31.0467 18.7281C32.4056 18.9421 33.7713 19.3864 34.9193 20.1468C35.0001 20.1673 35.1617 20.2082 35.2426 20.2286C35.296 20.4139 35.4864 20.448 35.6412 20.5202C35.733 20.6633 35.8932 20.7274 36.033 20.8119C38.3015 22.4705 39.9604 24.9181 40.6741 27.6274C41.2796 30.1555 41.1412 32.8893 40.1138 35.292C40.0426 35.4828 39.9563 35.6681 39.8426 35.8357C39.1069 37.5952 37.7782 39.0384 36.3316 40.2527C35.6412 40.7583 34.9138 41.2067 34.1563 41.606C33.07 42.038 31.9795 42.515 30.7987 42.5954C30.6385 42.6826 30.4631 42.7398 30.2796 42.7439C29.3919 42.8094 28.5015 42.8053 27.6138 42.7562C27.4028 42.7371 27.1727 42.7439 26.9974 42.609C26.5179 42.5313 26.033 42.4795 25.548 42.4387C25.5508 42.4005 25.5535 42.3256 25.5549 42.2888C25.3097 42.2492 25.0645 42.2083 24.8234 42.1552C24.6371 41.9617 24.3563 41.9562 24.1152 41.8854C23.9713 41.73 23.7604 41.6782 23.5727 41.5992C22.1563 40.9518 20.9357 39.9665 19.8385 38.8789C19.3932 38.3706 18.9713 37.8459 18.6028 37.2776C17.6713 35.8603 17.0809 34.244 16.7686 32.5854C16.6179 31.2212 16.6165 29.8393 16.7974 28.4778C16.9193 28.0322 17.048 27.5879 17.0974 27.1259C17.3467 26.6952 17.422 26.1883 17.6782 25.7576C18.196 24.4983 18.9782 23.3617 19.8932 22.3546C20.5165 21.6487 21.2946 21.1076 22.0289 20.5257C23.1343 19.922 24.2206 19.1983 25.4878 18.9857C25.8974 18.7363 26.4042 18.7935 26.8617 18.7158Z" fill="#B1B1B1"/>
</svg>
