<svg width="130" height="20" viewBox="0 0 130 20" fill="none" xmlns="http://www.w3.org/2000/svg">
<path fill-rule="evenodd" clip-rule="evenodd" d="M68.2732 0.612782C69.1332 0.446382 69.9931 0.286382 70.8546 0.126382C71.1531 3.43518 70.9914 6.76318 70.9852 10.08C70.9588 10.56 71.1252 11.2288 71.6912 11.2608C72.9741 11.2864 74.3347 11.392 75.543 10.8576C75.9893 10.7024 75.9799 10.1664 75.8758 9.77598C75.5865 8.65758 74.9941 7.66078 74.5213 6.62078C75.3175 6.23038 76.0841 5.77438 76.9036 5.43518C77.5801 6.89118 78.1119 8.45438 78.2098 10.0752C78.2907 11.6064 77.3437 13.1248 75.9348 13.6416C74.6224 14.1136 73.2042 13.9168 71.842 13.9632C71.0614 14.0032 70.3585 13.5936 69.7692 13.1088C68.2919 14.416 66.2657 13.824 64.5008 13.9728C64.1664 13.1216 64.2317 12.056 63.4698 11.4368C63.3889 11.5104 63.3096 11.584 63.2319 11.6576C63.7808 12.3008 63.7683 13.2112 64.014 13.9888C63.2101 14.0128 62.4077 13.9872 61.6053 14.0096C60.7407 17.3728 57.4627 19.4112 54.2796 19.8768C54.0774 19.0064 53.8706 18.136 53.6685 17.2656C55.7273 16.7712 58.1485 16.048 59.1826 13.9648C57.5747 14.0192 55.5951 13.784 54.6886 12.216C53.8442 10.4992 54.3978 8.33598 55.5407 6.90718C56.382 5.82398 57.9572 5.51198 59.1235 6.21278C60.8418 7.22078 61.6317 9.32638 61.8012 11.264C62.2553 11.2736 62.7311 11.2768 63.1199 11.5584C63.1401 11.488 63.179 11.3472 63.1992 11.2768C64.6267 11.2656 66.0573 11.3136 67.4833 11.2576C68.2546 11.1808 68.522 10.2784 68.463 9.59838C68.4101 6.60318 68.421 3.60478 68.2732 0.612782ZM56.6152 10.7088C57.3725 11.408 58.503 11.2512 59.4469 11.2752C59.2059 10.216 58.7627 8.93918 57.6913 8.52478C56.8967 8.77278 56.1829 9.90078 56.6152 10.7088ZM73.1529 0.222382C74.0004 -0.179218 74.4949 0.982382 75.0687 1.43838C75.6534 0.987182 76.1743 -0.260818 77.0311 0.260782C77.4697 0.796782 78.5193 1.31838 78.1134 2.13918C77.591 2.59998 77.168 3.55198 76.3656 3.36958C75.8758 3.00638 75.4994 2.50878 75.0625 2.08478C74.4965 2.54078 74.0937 3.55358 73.2555 3.36958C72.7813 2.99518 72.3614 2.54238 71.9773 2.07358C71.7005 1.23518 72.7097 0.764782 73.1529 0.222382ZM85.6475 0.123182C85.9554 0.121582 86.2649 0.121582 86.5759 0.121582C86.5759 6.70718 86.5759 13.2928 86.5759 19.8784C86.2649 19.8784 85.9554 19.8784 85.6475 19.8784C85.6397 13.2928 85.6397 6.70718 85.6475 0.123182ZM49.0998 6.61918C49.8882 6.21758 50.6688 5.80478 51.4619 5.41278C52.2176 7.26078 53.0636 9.31358 52.5582 11.3456C52.0979 13.0608 50.3267 14.0384 48.6706 13.9616C47.3442 13.9664 45.8467 14.1504 44.7908 13.1312C43.6479 13.76 42.3323 13.944 41.0526 13.9616C34.3768 13.9568 27.6996 13.9648 21.0238 13.9584C20.1592 17.3424 16.8844 19.408 13.6779 19.88C13.4633 19.0096 13.2674 18.136 13.0637 17.264C15.1396 16.784 17.5204 16.032 18.598 13.9696C17.0134 14.0144 15.0976 13.8016 14.1397 12.32C13.2394 10.6576 13.7541 8.52798 14.796 7.06238C15.6077 5.91998 17.2047 5.47838 18.4332 6.16158C20.1966 7.14238 20.9803 9.26078 21.2198 11.2064C21.2758 11.224 21.3877 11.2608 21.4453 11.2784C28.0308 11.28 34.6179 11.2816 41.2049 11.2784C42.0307 11.2432 43.0399 11.184 43.5546 10.4112C43.9978 9.60478 43.4659 8.73758 43.3726 7.91358C44.1704 7.70878 44.9557 7.45758 45.7487 7.23678C46.3909 8.48958 45.8203 10.2208 46.8232 11.2448C47.974 11.2224 49.431 11.5952 50.3329 10.664C50.5646 9.23038 49.6021 7.91038 49.0998 6.61918ZM16.3852 10.9872C17.1565 11.3344 18.0242 11.28 18.8468 11.2752C18.668 10.4208 18.3336 9.58398 17.7505 8.93758C16.7366 7.61758 15.009 10.3968 16.3852 10.9872ZM5.95877 7.89438C6.77205 7.51038 7.28676 8.46718 7.80458 8.93438C8.27264 9.30078 8.30997 10.0784 7.80614 10.4304C7.25721 10.9008 6.67408 12.0224 5.85147 11.4176C5.36319 10.824 4.38975 10.3584 4.52504 9.45758C4.87647 8.84158 5.44406 8.36638 5.95877 7.89438ZM8.73449 9.15678C9.48401 8.71358 10.2382 8.27998 11.0002 7.86238C11.6797 9.36798 12.2177 10.952 12.4976 12.5904C12.8569 14.6448 12.196 16.92 10.6316 18.2912C9.42181 19.3568 7.78748 19.784 6.22001 19.7264C4.4504 19.776 2.50973 19.2768 1.36056 17.7968C-0.737164 15.0704 0.0108023 11.0624 1.81152 8.38238C2.42886 8.83678 3.04621 9.29278 3.65889 9.75518C2.82851 11.296 2.02922 13.176 2.55949 14.9472C3.70709 17.384 7.1437 17.5632 9.08903 16.0624C9.87587 15.4688 10.4683 14.4704 10.2771 13.4352C10.0158 11.9264 9.31918 10.552 8.73449 9.15678ZM48.568 16.0528C49.4963 16.0592 50.2987 17.104 50.6222 17.9184C50.3096 18.7648 49.4248 19.9808 48.428 19.7536C47.8293 19.1952 46.7673 18.5824 46.9803 17.6192C47.425 17.0336 47.9304 16.4096 48.568 16.0528ZM39.4929 16.792C40.373 16.264 41.0043 17.4128 41.5128 17.9776C41.9964 17.4112 42.5796 16.3424 43.4488 16.7456C43.9651 17.2176 44.8561 17.7872 44.5265 18.6192C44.0709 19.1552 43.5095 20.0832 42.6978 19.744C42.2406 19.3952 41.8705 18.9424 41.5051 18.4976C41.135 18.9728 40.7602 19.496 40.2253 19.7824C39.4726 20.0128 39.031 19.1712 38.5676 18.7216C38.042 17.9328 38.9797 17.256 39.4929 16.792Z" fill="#B1B1B1"/>
<path fill-rule="evenodd" clip-rule="evenodd" d="M93.5503 1.92022C93.639 0.939421 94.5067 0.094621 95.4754 0.121821C98.2232 0.120221 100.971 0.115421 103.719 0.125021C104.574 0.089821 105.426 0.667421 105.656 1.52822C105.893 2.38582 106.078 3.25782 106.295 4.12022C105.333 4.12182 104.372 4.11542 103.412 4.12182C103.405 8.67222 103.412 13.2226 103.409 17.7714C103.459 18.7826 102.699 19.757 101.706 19.8546C100.615 20.0338 99.5014 19.0802 99.5232 17.933C99.517 13.3298 99.5263 8.72662 99.5185 4.12182C98.1687 4.11382 96.819 4.12342 95.4677 4.12182C94.362 4.17142 93.3902 3.04502 93.5503 1.92022ZM105.19 0.121821C106.202 0.126621 107.216 0.105821 108.23 0.126621C109.031 0.123421 109.814 0.675421 110.051 1.47062C111.015 5.20342 111.828 8.98102 112.833 12.7042C113.708 9.17462 114.523 5.62902 115.409 2.10262C115.908 0.339421 118.18 -0.444579 119.639 0.587421C120.429 1.07062 120.832 1.97782 120.984 2.87862C121.786 6.15862 122.553 9.44662 123.39 12.717C124.287 9.04662 125.176 5.37622 126.066 1.70422C126.179 1.03382 126.651 0.459421 127.283 0.248221C128.615 -0.318179 130.221 1.11862 129.84 2.55702C128.639 7.60822 127.409 12.6514 126.186 17.6978C125.882 19.0018 124.609 19.9506 123.313 19.8866C122.102 19.8994 120.973 19.005 120.626 17.8226C119.752 14.381 118.981 10.9138 118.093 7.47702C117.254 10.8722 116.439 14.2722 115.611 17.669C115.332 18.8674 114.252 19.8178 113.052 19.8802C111.701 20.021 110.355 19.0514 110.026 17.6978C108.712 12.3218 107.412 6.94262 106.102 1.56662C105.984 0.981021 105.594 0.525021 105.19 0.121821Z" fill="#B1B1B1"/>
</svg>
