<svg width="120" height="28" viewBox="0 0 120 28" fill="none" xmlns="http://www.w3.org/2000/svg">
<mask id="mask0_0_426" style="mask-type:alpha" maskUnits="userSpaceOnUse" x="0" y="0" width="31" height="27">
<path fill-rule="evenodd" clip-rule="evenodd" d="M0.0231934 0.913574H30.2912V26.9417H0.0231934V0.913574Z" fill="white"/>
</mask>
<g mask="url(#mask0_0_426)">
<path fill-rule="evenodd" clip-rule="evenodd" d="M14.9515 26.9417L0 0.913574H8.07767L19.0707 19.9524L14.9515 26.9417ZM19.8183 18.6837L9.5534 0.913574H30.2913L19.8183 18.6837Z" fill="#B1B1B1"/>
</g>
<path fill-rule="evenodd" clip-rule="evenodd" d="M40.3215 0.903149H57.3246V1.76445H41.2466V13.3537H55.358V14.2154H41.2466V26.0787H57.3246V26.94H40.3215V0.903149ZM85.2392 9.36033C85.2392 4.50529 81.8077 1.80349 76.6796 1.80349H68.5056V16.7212H77.2967C81.7305 16.6817 85.2392 14.0588 85.2392 9.36033ZM78.1833 17.5825H68.5056V26.979H67.619V0.903149H76.6411C82.6559 0.903149 86.1258 4.11368 86.1258 9.3209C86.1258 13.7453 83.3499 16.6817 79.2244 17.3474V17.4259L86.3957 26.705V27.0185H85.5476L78.1833 17.5825ZM107.409 1.21628C100.083 1.21628 95.9576 7.16766 95.9576 14.0194C95.9576 20.754 100.122 26.705 107.409 26.705C114.773 26.705 118.86 20.754 118.86 14.0194C118.86 7.16766 114.773 1.21628 107.409 1.21628ZM107.409 27.6057C99.9674 27.6057 95.0322 21.7328 95.0322 14.0588C95.0322 6.22788 99.9674 0.35498 107.409 0.35498C114.889 0.35498 119.785 6.22788 119.785 14.0588C119.747 21.7328 114.889 27.6057 107.409 27.6057Z" fill="#B1B1B1"/>
</svg>
