<svg width="120" height="47" viewBox="0 0 120 47" fill="none" xmlns="http://www.w3.org/2000/svg">
<path fill-rule="evenodd" clip-rule="evenodd" d="M84.8953 0H86.6084C87.7007 0.288251 88.7293 0.823079 89.5413 1.61722C92.0976 4.05057 94.5474 6.59273 97.061 9.07007C97.7872 9.83643 98.5517 10.5669 99.2918 11.3205C100.22 12.2281 101.63 12.7849 102.906 12.3219C103.356 12.2408 103.719 11.8658 104.186 11.875C102.979 13.0952 101.758 14.3026 100.546 15.5193C99.5559 16.4847 98.4451 17.6435 96.9521 17.6238C95.3791 17.5 94.2834 16.2104 93.2212 15.187C89.2251 11.192 85.2278 7.19934 81.2328 3.20433C81.0023 2.98786 80.9722 2.62552 81.0996 2.34768C82.0911 1.20741 83.4289 0.371601 84.8953 0Z" fill="#B1B1B1"/>
<path fill-rule="evenodd" clip-rule="evenodd" d="M107.595 0H109.096C110.584 0.333399 111.931 1.16921 112.946 2.30022C113.128 2.55953 113.1 2.95197 112.867 3.17308C109.98 6.0799 107.059 8.95547 104.186 11.875C103.719 11.8658 103.356 12.2408 102.906 12.3219C101.631 12.7849 100.22 12.2281 99.2919 11.3205C98.5518 10.5669 97.7873 9.83643 97.061 9.07007C99.6151 6.55685 102.098 3.96837 104.708 1.51187C105.518 0.760567 106.53 0.269729 107.595 0Z" fill="#B1B1B1"/>
<path fill-rule="evenodd" clip-rule="evenodd" d="M116.81 8.27237C117.05 8.01074 117.452 7.93203 117.751 8.14503C118.8 9.09661 119.593 10.326 120 11.6851V13.7943C119.699 14.8338 119.154 15.7958 118.401 16.5761C115.964 19.1136 113.438 21.562 110.962 24.0614C110.057 24.9365 109.117 25.7851 108.332 26.7725C107.547 27.7102 107.344 29.0948 107.841 30.2142C107.984 30.5233 108.108 30.8428 108.164 31.1808C106.787 29.8113 105.409 28.4407 104.043 27.0596C103.208 26.1879 102.32 25.1229 102.426 23.8356C102.551 22.5564 103.523 21.6049 104.356 20.7158C108.51 16.5691 112.656 12.4179 116.81 8.27237Z" fill="#B1B1B1"/>
<path fill-rule="evenodd" clip-rule="evenodd" d="M21.1251 17.3043C21.6788 15.4718 23.2135 13.7411 25.2429 13.6774C28.5405 13.6415 31.8405 13.6624 35.1394 13.667C34.5892 15.4579 33.1274 17.1677 31.1502 17.2985C27.8085 17.3159 24.4668 17.3043 21.1251 17.3043ZM70.8359 17.2973C71.3931 15.4741 72.9162 13.7561 74.9328 13.6786C78.2606 13.6381 81.5907 13.667 84.9185 13.6635C84.3625 15.4833 82.8614 17.2163 80.8448 17.3043C77.5089 17.3043 74.1718 17.317 70.8359 17.2973ZM36.8513 18.051C36.9 15.9719 38.6873 14.4137 40.5614 13.8499C40.5822 18.1112 40.5591 22.3724 40.573 26.6337C40.6367 27.5853 41.4544 28.3991 42.3973 28.4963C43.2799 28.6109 44.1938 28.0738 44.5309 27.2519C44.839 26.577 44.6039 25.8118 44.8355 25.1172C45.2456 23.4085 46.8174 22.2671 48.4147 21.7496C48.4228 23.2997 48.4124 24.8509 48.4193 26.401C48.4378 27.4996 49.412 28.4674 50.5054 28.5056C58.4537 28.5102 66.4019 28.5021 74.349 28.509L74.4081 28.5785C73.9228 29.9272 73.068 31.2445 71.722 31.8535C71.034 32.1938 70.2521 32.2378 69.4981 32.2413C62.8981 32.2332 56.2981 32.2528 49.6981 32.2308C48.388 32.2748 47.21 31.5826 46.3332 30.6623C45.9058 31.0142 45.5131 31.4182 45.0093 31.6682C43.7629 32.3802 42.2699 32.2679 40.8903 32.1926C38.6606 31.9657 36.8247 29.9121 36.8398 27.6732C36.8375 24.4654 36.8143 21.2576 36.8513 18.051ZM21.117 18.4423C22.3448 18.4249 23.5737 18.4376 24.8015 18.4353C24.9058 20.8027 24.8154 23.2036 24.8456 25.5837C24.8548 26.364 24.7205 27.3097 25.3726 27.8897C26.2124 28.6676 27.4448 28.4836 28.4942 28.5067C30.7483 28.5449 33.0382 28.4303 35.2714 28.5635C34.6934 30.2617 33.3961 31.9241 31.5104 32.1718C29.8934 32.3165 28.2637 32.2042 26.6409 32.2413C25.4236 32.3177 24.1958 31.9669 23.2633 31.1705C22.3483 31.7944 21.2907 32.2772 20.1521 32.2366C13.4351 32.2436 6.71699 32.2413 0 32.2378V32.0433C0.574517 30.7306 1.40849 29.4004 2.79498 28.839C3.4807 28.5391 4.2417 28.4917 4.98069 28.5056C9.69035 28.5067 14.4 28.5067 19.1097 28.5056C20.1602 28.4963 21.1124 27.5656 21.1089 26.5075C21.117 23.8195 21.0985 21.1303 21.117 18.4423ZM75.3846 22.582C75.4587 20.5237 77.2309 19.013 79.0761 18.4307C79.09 23.0033 79.0853 27.576 79.0784 32.1487C77.8552 32.1591 76.6309 32.1533 75.4077 32.1521C75.3405 28.9698 75.3869 25.7701 75.3846 22.582ZM28.661 22.7544C29.6931 22.5241 30.8317 23.3564 30.8444 24.4307C30.9579 25.3973 30.1575 26.3373 29.1927 26.3987C28.2359 26.5179 27.2653 25.7678 27.1749 24.8011C27.0255 23.8646 27.7274 22.9073 28.661 22.7544ZM33.1645 22.7382C34.0911 22.5843 35.0676 23.2603 35.2344 24.1876C35.4266 25.0223 34.9494 25.9379 34.156 26.2609C33.2212 26.6939 32.0097 26.1695 31.6807 25.1959C31.2649 24.1378 32.0351 22.8621 33.1645 22.7382ZM39.871 33.6073C40.961 33.2554 42.2548 34.1433 42.2236 35.309C42.3243 36.3381 41.371 37.277 40.3517 37.2214C39.3938 37.2365 38.5251 36.3821 38.539 35.4213C38.4961 34.6017 39.088 33.8261 39.871 33.6073ZM44.2761 33.6096C44.8749 33.4313 45.5583 33.5795 46.0263 33.9974C46.8996 34.7024 46.8429 36.2201 45.9151 36.8556C45.044 37.5583 43.595 37.2098 43.1363 36.1888C42.6208 35.2141 43.2069 33.884 44.2761 33.6096Z" fill="#B1B1B1"/>
<path fill-rule="evenodd" clip-rule="evenodd" d="M110.962 24.0615C113.464 26.584 116.02 29.0532 118.466 31.629C119.201 32.3977 119.696 33.355 120 34.3668V36.3325C119.615 37.7077 118.832 38.958 117.771 39.913C117.513 40.1411 117.086 40.0925 116.856 39.847C113.956 36.9611 111.08 34.0519 108.164 31.181C108.108 30.843 107.984 30.5234 107.841 30.2144C107.344 29.0949 107.547 27.7104 108.332 26.7727C109.117 25.7852 110.057 24.9367 110.962 24.0615Z" fill="#B1B1B1"/>
<path fill-rule="evenodd" clip-rule="evenodd" d="M93.0057 32.0608C94.0945 31.0259 95.1462 29.7062 96.7099 29.4364C98.013 29.257 99.1204 30.1438 100.004 30.9854C101.41 32.3676 102.8 33.7672 104.191 35.1644C103.459 35.0186 102.818 34.5405 102.045 34.5752C100.889 34.4675 99.8466 35.1309 99.0636 35.9157C98.4022 36.6011 97.7038 37.2493 97.0609 37.9509C94.5601 40.4351 92.1011 42.9611 89.5586 45.4014C88.7767 46.1585 87.8061 46.691 86.7671 47.0001H84.7644C83.3941 46.6285 82.1605 45.8425 81.198 44.8052C80.913 44.5042 81.0011 44.003 81.308 43.7518C85.208 39.8552 89.1068 35.9574 93.0057 32.0608Z" fill="#B1B1B1"/>
<path fill-rule="evenodd" clip-rule="evenodd" d="M99.0637 35.9155C99.8467 35.1306 100.889 34.4673 102.045 34.575C102.818 34.5403 103.459 35.0184 104.192 35.1642C107.068 38.0676 109.973 40.9431 112.854 43.8407C113.109 44.0722 113.138 44.5133 112.912 44.7738C111.935 45.8376 110.668 46.6422 109.261 46.9999H107.467C106.387 46.7209 105.378 46.1814 104.577 45.3989C102.02 42.9702 99.5699 40.4291 97.061 37.9506C97.7039 37.2491 98.4023 36.6008 99.0637 35.9155Z" fill="#B1B1B1"/>
</svg>
