<svg width="120" height="24" viewBox="0 0 120 24" fill="none" xmlns="http://www.w3.org/2000/svg">
<path fill-rule="evenodd" clip-rule="evenodd" d="M38.644 0.126104C39.767 0.112904 40.89 0.123704 42.0142 0.118904C41.8933 2.4133 41.7204 4.7041 41.5865 6.9973C42.1042 6.6661 42.6053 6.3061 43.162 6.0445C45.1758 5.0401 47.7737 5.2453 49.5281 6.7021C51.0527 7.9429 51.889 9.8521 52.2467 11.7613C52.7075 14.3665 52.4884 17.1637 51.2754 19.5385C50.1168 21.8893 47.75 23.6401 45.1273 23.7769C43.5139 23.9101 42.0023 23.1349 40.762 22.1593C40.7419 22.6885 40.7194 23.2177 40.7052 23.7469C39.5774 23.7757 38.4485 23.7553 37.3196 23.7577C37.7614 15.8809 38.2104 8.0041 38.644 0.126104ZM44.6996 8.6929C43.3468 9.1105 42.4607 10.3741 41.9395 11.6413C41.2157 13.4785 41.0191 15.5557 41.4941 17.4805C41.827 18.7369 42.5685 20.0629 43.8728 20.4625C45.4092 20.9497 47.0831 20.1109 47.9064 18.7705C48.9606 17.0377 49.2485 14.9185 49.1028 12.9169C48.976 11.6497 48.6325 10.3093 47.7073 9.3913C46.9362 8.6077 45.7291 8.3941 44.6996 8.6929ZM96.3447 0.168104C97.6134 -0.164296 98.9555 0.964904 98.9164 2.2789C98.9579 3.2737 98.1227 4.2001 97.1383 4.2289C95.9454 4.3321 94.813 3.2545 94.8521 2.0413C94.8438 1.1629 95.5 0.350504 96.3447 0.168104ZM100.948 0.124904C102.062 0.114104 103.175 0.121304 104.289 0.121304C103.88 7.9969 103.418 15.8701 103.01 23.7469C101.892 23.7709 100.774 23.7661 99.6556 23.7493C100.093 15.8749 100.525 8.0005 100.948 0.124904ZM56.6345 7.3345C58.2787 5.8069 60.7036 4.9909 62.888 5.6509C63.8132 5.9125 64.627 6.4477 65.3922 7.0189C65.4219 6.4837 65.4254 5.9473 65.4301 5.4109C66.5472 5.3941 67.6655 5.3893 68.7837 5.4145C68.4686 11.5273 68.1654 17.6413 67.8633 23.7553C66.7356 23.7577 65.6078 23.7745 64.4801 23.7469C64.518 23.2309 64.5583 22.7149 64.5701 22.1965C62.6831 23.7109 59.9893 24.3109 57.7646 23.2057C55.5257 22.1209 54.3186 19.6537 53.9277 17.2717C53.3188 13.8013 53.9928 9.8161 56.6345 7.3345ZM60.5745 8.6941C59.3058 8.9821 58.3924 10.0621 57.8475 11.2009C56.8761 13.2769 56.6902 15.7381 57.4116 17.9233C57.7421 18.8785 58.3107 19.8181 59.2205 20.3005C60.3601 20.8957 61.8301 20.6533 62.7648 19.7785C64.2538 18.3889 64.8224 16.2649 64.9231 14.2765C64.993 12.5425 64.6483 10.6225 63.3701 9.3673C62.638 8.6557 61.5411 8.4577 60.5745 8.6941ZM70.9101 5.4205C72.0284 5.3749 73.149 5.4097 74.2673 5.4025C74.2282 6.1081 74.1618 6.8113 74.1476 7.5181C75.8167 5.7649 78.4856 4.7749 80.798 5.7433C81.7966 6.1621 82.5405 7.0441 82.9468 8.0425C83.6457 7.4365 84.257 6.7093 85.0756 6.2569C86.4769 5.4109 88.2384 5.1013 89.8057 5.6281C91.239 6.1033 92.3372 7.4725 92.4935 8.9929C92.6523 10.2301 92.6262 11.4805 92.5824 12.7249C92.4118 16.4005 92.1796 20.0737 92.0019 23.7505C90.899 23.7721 89.7962 23.7565 88.6933 23.7577C88.871 19.8373 89.0819 15.9181 89.2726 11.9977C89.2868 10.9369 89.2465 9.6253 88.3024 8.9497C87.3298 8.3869 86.028 8.5669 85.1194 9.1837C83.7464 10.2169 83.3958 12.0649 83.2513 13.6897C83.0795 17.0461 82.9006 20.4025 82.704 23.7577C81.5905 23.7625 80.4769 23.7625 79.3646 23.7577C79.5541 19.8769 79.797 15.9997 79.9628 12.1189C79.9735 11.0161 79.9557 9.6349 78.9606 8.9377C77.7216 8.2513 76.0513 8.7085 75.1912 9.8113C74.272 10.9609 73.919 12.4657 73.8124 13.9141C73.6477 17.1949 73.4736 20.4757 73.3172 23.7577C72.2037 23.7625 71.0902 23.7613 69.9766 23.7577C70.2716 17.6449 70.6258 11.5345 70.9101 5.4205ZM95.1352 5.3461C96.1551 5.9113 97.444 5.9281 98.4686 5.3653C98.1298 11.5357 97.8325 17.7073 97.5115 23.8789C96.398 23.8801 95.2856 23.8837 94.1721 23.8765C94.4943 17.7001 94.8177 11.5237 95.1352 5.3461ZM111.991 5.4577C113.784 5.1613 115.758 5.4781 117.173 6.6961C118.638 7.9333 119.402 9.8161 119.713 11.6809C120.178 14.5837 119.713 17.7001 118.145 20.2033C116.472 23.0197 112.798 24.4873 109.713 23.3689C107.887 22.7173 106.609 21.0457 105.97 19.2493C105.044 16.6261 105.014 13.6765 105.901 11.0389C106.795 8.2873 109.084 5.8861 111.991 5.4577ZM112.096 8.6809C111.019 8.9581 110.199 9.81971 109.667 10.7725C108.551 12.7561 108.342 15.1837 108.877 17.3821C109.137 18.4069 109.617 19.4473 110.501 20.0641C111.689 20.8789 113.401 20.6605 114.425 19.6705C115.892 18.2653 116.449 16.1473 116.537 14.1625C116.597 12.4909 116.271 10.6633 115.084 9.4201C114.327 8.6197 113.129 8.3977 112.096 8.6809Z" fill="#B1B1B1"/>
<path fill-rule="evenodd" clip-rule="evenodd" d="M1.08521 3.53175C1.16102 1.75695 2.73772 0.208952 4.49922 0.240152C10.6449 0.246152 16.7906 0.228152 22.9352 0.249752C23.6495 1.36455 24.4917 2.39295 25.1764 3.52815C17.1484 3.60015 9.11443 3.56415 1.08521 3.53175ZM3.4165 20.5622C11.7111 20.5742 20.0092 20.5058 28.3026 20.615C27.2104 21.9878 26.1134 23.7614 24.1778 23.8658C17.1922 23.9018 10.2031 23.8646 3.2163 23.885C3.3703 23.0522 3.31344 22.2038 3.35964 21.3626C3.37859 21.095 3.39991 20.8286 3.4165 20.5622Z" fill="#B1B1B1"/>
<path fill-rule="evenodd" clip-rule="evenodd" d="M22.9351 0.249681C23.7015 0.231681 24.4679 0.240081 25.2356 0.241281C26.3029 0.243681 27.3584 0.772881 27.9874 1.65008C29.782 4.18928 31.5637 6.73808 33.3607 9.27488C32.7317 10.2745 31.8918 11.1133 31.1822 12.0517C29.1649 9.22088 27.1759 6.37088 25.1763 3.52808C24.4916 2.39288 23.6494 1.36448 22.9351 0.249681Z" fill="#B1B1B1"/>
<path fill-rule="evenodd" clip-rule="evenodd" d="M1.08145 3.55304C2.17128 3.56024 3.2623 3.53024 4.35213 3.57224C4.04177 9.50264 3.66743 15.4318 3.35944 21.3622C3.31324 22.2034 3.3701 23.0518 3.2161 23.8846C1.547 23.971 0.030709 22.4542 0.118369 20.7586C0.422812 15.0226 0.775823 9.28904 1.08145 3.55304ZM33.3606 9.27464C33.7373 9.86024 34.2396 10.3882 34.4244 11.0782C34.7051 12.0622 34.4339 13.1602 33.7835 13.9354C31.9675 16.1554 30.1563 18.3814 28.3355 20.5978C26.9875 20.5174 25.637 20.6146 24.289 20.5414C26.5326 17.671 28.8959 14.8906 31.1821 12.0514C31.8917 11.113 32.7316 10.2742 33.3606 9.27464Z" fill="#B1B1B1"/>
<path fill-rule="evenodd" clip-rule="evenodd" d="M23.0192 8.80933C24.9359 8.18413 27.1144 9.72493 27.2222 11.7529C27.4472 13.6825 25.7308 15.5257 23.8153 15.4009C21.8974 15.3937 20.3065 13.4425 20.6536 11.5333C20.8324 10.2613 21.7967 9.15133 23.0192 8.80933ZM23.4954 10.3741C22.2753 10.6453 21.7979 12.3685 22.7053 13.2397C23.525 14.1829 25.2214 13.7737 25.5436 12.5641C25.9902 11.3437 24.7238 9.98293 23.4954 10.3741Z" fill="#B1B1B1"/>
</svg>
