<svg width="100" height="27" viewBox="0 0 100 27" fill="none" xmlns="http://www.w3.org/2000/svg">
<path fill-rule="evenodd" clip-rule="evenodd" d="M0 0.041273C1.28205 0.041273 2.5641 0.041273 3.84615 0.041273C3.84615 5.00292 3.84615 9.96774 3.84615 14.9294C2.5641 14.9294 1.28205 14.9294 0 14.9294C0 9.96774 0 5.00292 0 0.041273ZM11.1795 0.03492C12.4551 0.0380965 13.7308 0.0317436 15.0064 0.0571553C15.0449 5.5461 15.0064 11.035 15.0256 16.524C15.1538 18.7761 13.1923 20.8821 10.9135 20.9139C7.27564 20.9393 3.63782 20.9139 0 20.9234C0 19.6496 0 18.3759 0 17.0989C3.10256 17.0989 6.20192 17.0957 9.30449 17.1053C9.85256 17.1307 10.3782 16.9814 10.8974 16.8289C11.2949 15.7108 11.1442 14.5101 11.1635 13.3507C11.1763 8.91315 11.141 4.47245 11.1795 0.03492ZM17.2724 0.041273C18.5128 0.041273 19.7564 0.0317436 21 0.0603318C21.0256 5.21892 20.9872 10.3807 21.0192 15.5393C20.9263 16.273 21.4295 16.7686 22 17.1243C24.1923 17.0703 26.391 17.1084 28.5865 17.1053C26.8622 14.8341 24.9295 12.7281 23.1987 10.4601C26.0705 6.99139 28.9679 3.54492 31.8686 0.0984494C33.5288 -0.0540211 35.2019 0.0920965 36.8686 0.0253906C34.0577 3.57668 31.0833 7.00092 28.1795 10.4792C31.0449 13.951 33.9551 17.3912 36.7628 20.9075C31.6603 20.9393 26.5577 20.917 21.4551 20.9202C19.266 20.971 17.109 19.0842 17.25 16.848C17.2692 11.2447 17.2308 5.64457 17.2724 0.041273Z" fill="#B1B1B1"/>
<path fill-rule="evenodd" clip-rule="evenodd" d="M58.109 6.12403C60.7532 6.20026 63.4006 6.13991 66.0449 6.15579C66.734 6.13038 67.3878 6.35909 68.0417 6.5465L68.0961 6.72756C68.7308 6.98803 69.2564 7.46132 69.4904 8.1125C69.5801 8.13156 69.7564 8.1665 69.8461 8.18556L69.6122 8.75415L70.0128 8.72556C70.4904 11.505 70.1827 14.3289 70.2852 17.1337C73.6154 17.0829 76.9615 17.3243 80.2788 16.9876C80.8365 14.6846 80.1154 12.2546 80.5705 9.93897C81.7468 9.67532 82.9615 9.95485 84.1538 9.97391C84.0769 12.5183 84.141 15.0658 84.1186 17.6101L83.8654 17.6038C83.8077 17.9532 83.7436 18.3026 83.6827 18.6552C83.1923 19.3032 82.609 19.875 81.9583 20.3641C81.6026 20.4245 81.2468 20.4817 80.8942 20.5389L80.9134 20.7898C71.9968 20.793 63.0801 20.7866 54.1634 20.793C53.4455 20.7993 52.7468 20.6214 52.0449 20.5007L52.1827 20.1291C51.0801 20.11 50.1442 20.8597 49.0384 20.793C45.9295 20.793 42.8173 20.7866 39.7083 20.7898C38.6154 19.6463 37.782 18.2645 36.5513 17.2576C40.2788 17.0574 44.016 17.1781 47.7468 17.1559C48.3269 17.1591 48.8974 17.0384 49.4615 16.9145C49.9102 14.6751 49.5384 12.3785 49.7083 10.1169C50.7404 9.45297 52.1891 10.0501 53.3814 9.97709C53.3237 12.1816 53.3461 14.3892 53.375 16.5937C53.75 16.7557 54.0577 17.0193 54.3558 17.2925C58.4199 16.924 62.5128 17.2989 66.5833 17.1845C66.5801 15.2659 66.5961 13.3441 66.5833 11.4256C66.5449 10.8538 66.609 10.0565 65.8782 9.90721L65.9295 9.68803C63.2917 9.76426 60.6506 9.70073 58.0128 9.72615C57.9776 8.52226 58.0384 7.32473 58.109 6.12403ZM86.6474 6.11768C90.0929 6.22885 93.5417 6.09226 96.9872 6.19073L96.907 6.46391C97.391 6.47979 97.8237 6.69579 98.2692 6.85779L98.1987 7.07062C98.6346 7.13732 98.8942 7.38191 98.9711 7.80756L99.157 7.75991C99.3461 8.18873 99.5929 8.60485 99.5352 9.09721L99.8461 9.02732C99.907 11.5304 99.859 14.0334 99.8814 16.5333C99.9295 18.0136 99.157 19.7003 97.7019 20.2593C96.5801 21.009 95.1763 20.758 93.9038 20.793C91.484 20.812 89.0641 20.739 86.6442 20.8374C86.5 19.6621 86.5256 18.4741 86.5417 17.2925C89.6859 16.9272 92.8654 17.3783 96.0064 17.0034C96.5481 15.0817 96.1731 13.0456 96.2788 11.0761C96.3878 10.4599 95.7372 10.1359 95.4295 9.71026C92.4647 9.74203 89.4968 9.71344 86.532 9.72615C86.4968 8.51909 86.6122 7.32156 86.6474 6.11768ZM40.8461 23.3341C41.9551 22.9625 43.234 23.277 44.407 23.3024C44.3654 24.4809 44.3654 25.6625 44.391 26.841C43.1987 26.8156 42.0064 26.8092 40.8141 26.8664C40.7468 25.707 40.5 24.4237 40.8461 23.3341ZM45.6026 23.2801C46.8141 23.2134 48.0256 23.1531 49.2404 23.1912C49.2308 24.4141 49.2243 25.6371 49.2564 26.86C48.0417 26.8092 46.8269 26.806 45.6154 26.86C45.6474 25.6689 45.6538 24.4745 45.6026 23.2801ZM62.7147 23.3024C63.9519 23.0959 65.1987 23.3723 66.4455 23.3151C66.4199 24.4872 66.4263 25.6561 66.4295 26.8283C65.1987 26.8251 63.9679 26.8251 62.7372 26.8314C62.7436 25.6561 62.7468 24.4777 62.7147 23.3024ZM71.9327 23.2992C73.1282 23.2833 74.3301 23.3024 75.5224 23.1785C75.5128 24.4078 75.5064 25.6371 75.5384 26.8632C74.3429 26.8092 73.1474 26.8156 71.9551 26.8441C71.9776 25.6625 71.984 24.4777 71.9327 23.2992ZM76.8141 23.3119C77.984 23.0769 79.1699 23.2706 80.3493 23.296C80.407 24.484 80.3814 25.6689 80.3269 26.8569C79.1634 26.8156 78 26.8219 76.8397 26.8283C76.8461 25.6561 76.8526 24.484 76.8141 23.3119Z" fill="#B1B1B1"/>
</svg>
