<svg width="120" height="22" viewBox="0 0 120 22" fill="none" xmlns="http://www.w3.org/2000/svg">
<path fill-rule="evenodd" clip-rule="evenodd" d="M108.016 0.128602C109.17 -0.109236 110.348 0.0879712 111.486 0.310944C115.578 1.14239 118.949 4.46815 119.862 8.45689C120.223 9.35176 119.235 10.4191 118.295 10.1059C117.772 9.96121 117.413 9.49644 117.328 8.98112C116.665 6.15581 114.369 3.75266 111.516 2.96878C109.065 2.23644 106.296 2.76464 104.261 4.27788C102.129 5.82581 100.842 8.40734 100.862 11.0047C100.893 11.747 100.131 12.3822 99.3869 12.2524C98.5667 12.1682 98.1081 11.2396 98.3001 10.5043C98.4021 7.3341 100.018 4.25905 102.575 2.32166C104.138 1.11662 106.045 0.361485 108.016 0.128602ZM97.3203 0.26635C98.1334 -0.0091459 99.1526 0.599323 99.0647 1.48725C99.1304 2.19878 98.4587 2.7577 97.7758 2.79833C94.2142 3.42266 91.3263 6.57401 91.0516 10.1089C91.0203 10.7709 91.0395 11.4318 91.0597 12.0938C91.0789 12.7509 90.4829 13.3831 89.8001 13.3554C89.194 13.4148 88.6465 12.9312 88.5112 12.3743C87.9879 8.69176 89.5566 4.79221 92.5213 2.46734C93.9021 1.35842 95.5688 0.600314 97.3203 0.26635ZM108.429 4.81797C108.916 4.77635 109.407 4.77932 109.897 4.80707C112.883 5.07563 115.397 7.7632 115.422 10.7035C115.483 11.8808 115.211 13.0858 114.588 14.0976C114.023 14.9816 112.512 14.6873 112.293 13.6784C112.106 12.9907 112.663 12.4417 112.774 11.7975C113.149 10.313 112.428 8.63031 111.081 7.85734C109.339 6.75139 106.775 7.5323 105.944 9.38743C105.755 9.95527 105.339 10.5974 104.651 10.5756C103.814 10.6787 103.098 9.79076 103.329 9.01383C104.017 6.80788 106.091 5.09446 108.429 4.81797ZM94.9031 6.91689C95.6718 6.65725 96.5647 7.22509 96.6082 8.02284C96.6677 8.44698 96.4183 8.81266 96.2031 9.15554C95.4556 10.3636 95.5617 11.9967 96.4162 13.1264C97.2395 14.277 98.8071 14.8864 100.201 14.5089C101.161 14.2978 101.982 13.6586 102.485 12.8381C102.782 12.3277 103.472 11.9848 104.046 12.2504C104.693 12.4664 105.061 13.2315 104.845 13.8627C103.581 16.4671 100.232 17.8535 97.4516 16.8952C95.3021 16.2253 93.6405 14.3335 93.2294 12.1642C93.0637 10.8967 93.1132 9.5559 93.698 8.38851C93.9778 7.82464 94.2657 7.16266 94.9031 6.91689ZM108.619 9.74419C109.275 9.48752 110.027 9.98004 110.238 10.5984C110.595 15.5058 106.988 20.321 102.136 21.5271C100.689 21.8719 99.1465 22.2525 97.6859 21.758C95.0334 21.3418 92.5435 19.9405 90.8778 17.8683C90.3233 17.1776 90.7465 16.0509 91.6142 15.8536C92.196 15.6951 92.7556 16.0479 93.0869 16.4958C94.6455 18.2558 97.0031 19.3608 99.394 19.2914C101.605 19.331 103.792 18.3698 105.311 16.805C106.847 15.2709 107.685 13.1363 107.715 10.9968C107.659 10.429 108.097 9.92653 108.619 9.74419ZM117.809 13.0135C118.46 12.7251 119.288 13.0809 119.513 13.7458C119.771 14.3543 119.383 14.9677 119.16 15.5256C117.746 18.674 114.709 21.0494 111.264 21.6965C110.653 21.8987 109.933 21.6192 109.653 21.0474C109.275 20.3389 109.716 19.3667 110.528 19.2111C113.423 18.7721 115.98 16.7079 116.996 14.0154C117.131 13.5982 117.383 13.1918 117.809 13.0135Z" fill="#DFC8A3"/>
<path fill-rule="evenodd" clip-rule="evenodd" d="M28.4334 1.46922C28.9303 1.3394 29.5182 1.41075 29.8697 1.8121C30.5586 2.43444 30.3465 3.68012 29.498 4.06363C28.6495 4.52841 27.4738 3.82084 27.5 2.87345C27.4323 2.263 27.8637 1.68228 28.4334 1.46922ZM9.22831 4.5076C10.0849 4.32228 10.9596 5.09426 10.8758 5.94652C10.8849 6.7958 9.93336 7.4994 9.10608 7.23183C8.51315 7.07129 8.1081 6.51237 8.05053 5.9267C8.06871 5.27264 8.54043 4.6067 9.22831 4.5076ZM12.9677 4.51156C13.7889 4.31832 14.6707 5.01697 14.6313 5.84544C14.7061 6.58372 14.0364 7.2576 13.3 7.28832C12.5576 7.31904 11.8465 6.68381 11.8566 5.94553C11.797 5.28751 12.3101 4.63643 12.9677 4.51156ZM41.8536 4.50661C42.6707 4.33219 43.5212 5.02886 43.499 5.84444C43.5515 6.45688 43.1 7.04751 42.5101 7.22291C41.6546 7.52616 40.6081 6.74525 40.7313 5.84543C40.6778 5.20525 41.2323 4.61859 41.8536 4.50661ZM2.56366 5.43616C2.64649 5.41634 2.80103 5.44507 2.77073 5.563C2.7879 8.10291 2.78285 10.6438 2.77982 13.1837C2.72831 13.6386 3.30911 13.7109 3.61821 13.8903C4.28487 14.2064 5.04043 14.1291 5.7576 14.1361C9.598 14.1301 13.4394 14.1252 17.2798 14.1252C17.5728 14.1301 17.8576 14.0459 18.1162 13.9141C18.8839 13.5851 19.5152 12.9756 19.8202 12.2056C20.1576 11.5198 20.0384 10.7419 20.0536 10.0086C20.0626 8.51021 20.0364 7.01084 20.0657 5.51345C20.9202 5.49363 21.7748 5.48868 22.6283 5.51643C22.6626 7.44291 22.6374 9.37039 22.6404 11.2969C22.6556 11.9945 22.499 12.7061 22.6687 13.3938C23.3293 13.8536 24.1243 14.1886 24.9505 14.1291C26.3879 14.1202 27.597 12.7814 27.5566 11.395C27.5616 9.70138 27.5566 8.00877 27.5566 6.31516C28.3566 5.8048 29.3 5.46787 30.2626 5.47282C30.2536 7.58066 30.2889 9.68949 30.2536 11.7963C30.1162 13.2987 29.3485 14.7802 28.0728 15.6533C26.1859 16.9842 23.5596 16.8791 21.5889 15.7752C21.2728 15.6562 20.9101 15.2143 20.593 15.5472C19.8768 16.0953 19.001 16.4262 18.1101 16.5689C13.5121 16.5977 8.91417 16.6017 4.31618 16.5729C2.75659 16.3747 1.25053 15.7524 0.0272959 14.7802C0.0161848 11.9579 0.048508 9.13552 0.028306 6.31318C0.785882 5.82462 1.6677 5.54715 2.56366 5.43616ZM72.2818 5.81174C74.1323 5.27958 76.1132 5.20525 78.0051 5.5739C79.7334 5.97327 81.2364 7.19219 81.9576 8.78571C82.9576 10.8945 82.5243 13.6188 80.795 15.24C79.3263 16.5908 77.1111 16.9257 75.2182 16.3747C74.4283 16.1438 73.6374 15.8901 72.9162 15.4927C71.9142 16.1706 70.7323 16.6542 69.495 16.6155C67.999 16.677 66.5727 16.124 65.2566 15.4828C63.0839 17.2101 59.9515 16.7612 57.6697 15.4848C56.8111 16.0824 55.8132 16.5273 54.7515 16.5987C52.7475 16.6235 50.6364 16.8098 48.7889 15.8762C47.801 17.0397 46.3152 17.8453 44.7475 17.8126C42.8293 17.8047 40.9101 17.8364 38.993 17.7968C36.493 17.5966 34.4768 15.4055 34.3303 12.9816C34.2475 10.7578 34.3334 8.53003 34.2798 6.30525C35.0647 5.76616 36.0263 5.47877 36.9818 5.46192C37.0273 7.57174 36.995 9.68255 37.0041 11.7924C37.0172 12.3067 36.9495 12.8408 37.1334 13.3353C37.5061 14.473 38.6657 15.352 39.899 15.3153C41.5162 15.3015 43.1344 15.3213 44.7505 15.3074C46.1172 15.1211 47.2495 13.8477 47.2233 12.4861C47.2172 10.2385 47.2253 7.99093 47.2182 5.74336C47.2344 5.63237 47.1727 5.39453 47.3667 5.4203C48.1445 5.40246 48.9253 5.41237 49.7041 5.41534C49.8919 5.38958 49.9717 5.59273 49.9435 5.74435C49.9394 8.40913 49.9414 11.0749 49.9414 13.7397C51.0849 14.3313 52.401 14.0717 53.6364 14.1271C54.8869 14.2272 56.1546 13.5217 56.693 12.4068C57.1344 11.6814 57.0081 10.8123 57.0202 10.0086C57.0283 8.50823 57.0041 7.00886 57.0323 5.5085C57.8798 5.48967 58.7293 5.48075 59.5778 5.51544C59.597 8.25553 59.5243 11.0016 59.6121 13.7397C59.6465 13.7545 59.7132 13.7833 59.7465 13.7981C60.7263 14.1965 61.894 14.2917 62.8637 13.814C63.8364 13.372 64.5738 12.3691 64.5253 11.2969C64.5233 9.36048 64.5313 7.42507 64.5202 5.48967C65.4071 5.31228 66.3233 5.4748 67.2222 5.39552C67.198 8.16832 67.194 10.9441 67.2222 13.7159C67.2536 13.7317 67.3162 13.7625 67.3465 13.7783C69.1253 14.691 71.7031 13.8497 72.1404 11.8142C72.3222 9.82426 72.0364 7.77489 72.2818 5.81174ZM74.9121 8.12174C74.8606 10.074 74.8889 12.0322 74.897 13.9864C76.2495 14.4948 77.9172 14.2738 78.9758 13.265C80.1525 12.0907 80.0586 9.90751 78.7172 8.88877C77.6596 8.07219 76.2051 7.89877 74.9121 8.12174ZM51.2515 18.6857C51.895 18.544 52.6142 18.8978 52.8384 19.5152C53.1849 20.2009 52.7647 21.075 52.0626 21.3515C51.3515 21.6785 50.4384 21.2207 50.2182 20.4972C49.9354 19.749 50.4505 18.8383 51.2515 18.6857ZM55.0859 18.6748C55.901 18.5143 56.7253 19.2139 56.7222 20.0176C56.7525 20.7589 56.0879 21.4486 55.3323 21.4605C54.699 21.4674 54.1051 21.0036 53.9515 20.4041C53.7162 19.6489 54.2859 18.7759 55.0859 18.6748ZM61.8546 18.6768C62.6687 18.5083 63.5121 19.207 63.493 20.0176C63.5586 20.8352 62.7233 21.5735 61.9031 21.4466C61.3273 21.3495 60.8132 20.8897 60.7162 20.3159C60.5485 19.5885 61.097 18.7818 61.8546 18.6768Z" fill="#DFC8A3"/>
<path fill-rule="evenodd" clip-rule="evenodd" d="M72.7454 5.57314C74.4636 5.25404 76.3192 4.99936 78.005 5.57413C76.1131 5.20548 74.1323 5.27981 72.2818 5.81197C72.0363 7.77512 72.3222 9.82449 72.1404 11.8144C72.1565 9.85719 72.1525 7.89999 72.1464 5.94278C72.102 5.6217 72.5333 5.65044 72.7454 5.57314Z" fill="#B1B1B1"/>
<path fill-rule="evenodd" clip-rule="evenodd" d="M19.9496 5.40167C20.8052 5.37293 21.6627 5.37788 22.5183 5.38977C22.7193 5.37491 22.7011 5.60977 22.7011 5.74158C22.6678 8.29239 22.7334 10.8442 22.6688 13.394C22.4991 12.7063 22.6557 11.9947 22.6405 11.2971C22.6375 9.37059 22.6627 7.44311 22.6284 5.51662C21.7749 5.48887 20.9203 5.49383 20.0658 5.51365C20.0365 7.01104 20.0627 8.51041 20.0536 10.0088C20.0385 10.7421 20.1577 11.52 19.8203 12.2058C20.0597 9.94635 19.8496 7.66806 19.9496 5.40167Z" fill="#B1B1B1"/>
<path fill-rule="evenodd" clip-rule="evenodd" d="M57.003 5.39873C57.8292 5.35612 58.6616 5.38188 59.4898 5.38585C59.6888 5.36999 59.6605 5.61576 59.6706 5.74359C59.6626 7.99116 59.6696 10.2387 59.6666 12.4863C59.6585 12.9243 59.6444 13.3673 59.7464 13.7984C59.7131 13.7835 59.6464 13.7548 59.6121 13.7399C59.5242 11.0018 59.5969 8.25576 59.5777 5.51567C58.7292 5.48098 57.8797 5.4899 57.0323 5.50873C57.004 7.00909 57.0282 8.50846 57.0201 10.0088C57.008 10.8125 57.1343 11.6816 56.6929 12.407C57.0757 10.6094 56.8131 8.75819 56.8909 6.93675C56.9565 6.43828 56.7434 5.82585 57.003 5.39873Z" fill="#B1B1B1"/>
<path fill-rule="evenodd" clip-rule="evenodd" d="M67.2224 5.39551C67.282 5.50253 67.3416 5.61452 67.3335 5.74136C67.3375 8.42001 67.3102 11.0997 67.3466 13.7783C67.3163 13.7624 67.2537 13.7317 67.2224 13.7159C67.1941 10.9441 67.1981 8.1683 67.2224 5.39551Z" fill="#B1B1B1"/>
<path fill-rule="evenodd" clip-rule="evenodd" d="M3.61816 13.8906C4.06261 13.931 4.50301 14.0199 4.95049 14.024C8.8222 14.0219 12.6939 14.0159 16.5646 14.0159C17.0848 14.033 17.603 13.9947 18.1161 13.9149C17.8576 14.0492 17.5727 14.1351 17.2798 14.13C13.4394 14.13 9.59796 14.1351 5.75756 14.1411C5.04039 14.1341 4.28483 14.2128 3.61816 13.8906Z" fill="#B1B1B1"/>
<path fill-rule="evenodd" clip-rule="evenodd" d="M4.31616 16.5734C8.91414 16.6027 13.5121 16.5986 18.1101 16.5693C17.9111 16.6542 17.699 16.7148 17.4798 16.7087C13.5727 16.7037 9.66465 16.7108 5.75758 16.7087C5.27677 16.6956 4.76869 16.7804 4.31616 16.5734Z" fill="#B1B1B1"/>
</svg>
